<svg width="150" height="47" viewBox="0 0 150 47" fill="none" xmlns="http://www.w3.org/2000/svg">
<path d="M60.858 6.13C61.95 6.13 62.922 6.334 63.774 6.742C64.638 7.138 65.34 7.708 65.88 8.452C66.42 9.184 66.786 10.036 66.978 11.008H63.252C63.048 10.504 62.73 10.114 62.298 9.838C61.866 9.55 61.368 9.406 60.804 9.406C60.024 9.406 59.394 9.7 58.914 10.288C58.434 10.864 58.194 11.638 58.194 12.61C58.194 13.582 58.434 14.362 58.914 14.95C59.394 15.538 60.024 15.832 60.804 15.832C61.368 15.832 61.866 15.688 62.298 15.4C62.73 15.112 63.048 14.716 63.252 14.212H66.978C66.69 15.7 66.006 16.888 64.926 17.776C63.858 18.652 62.502 19.09 60.858 19.09C59.598 19.09 58.494 18.82 57.546 18.28C56.61 17.728 55.884 16.96 55.368 15.976C54.864 14.992 54.612 13.87 54.612 12.61C54.612 11.35 54.864 10.228 55.368 9.244C55.884 8.26 56.61 7.498 57.546 6.958C58.494 6.406 59.598 6.13 60.858 6.13ZM75.4359 19L72.8619 14.302H72.5019V19H68.9559V6.256H74.5539C75.5739 6.256 76.4379 6.436 77.1459 6.796C77.8659 7.144 78.4059 7.63 78.7659 8.254C79.1259 8.878 79.3059 9.58 79.3059 10.36C79.3059 11.248 79.0599 12.022 78.5679 12.682C78.0759 13.33 77.3679 13.786 76.4439 14.05L79.3419 19H75.4359ZM72.5019 11.926H74.2479C75.2319 11.926 75.7239 11.482 75.7239 10.594C75.7239 10.174 75.5979 9.844 75.3459 9.604C75.1059 9.364 74.7399 9.244 74.2479 9.244H72.5019V11.926ZM84.6577 9.082V11.188H88.7797V13.87H84.6577V16.174H89.3197V19H81.1117V6.256H89.3197V9.082H84.6577ZM99.3798 16.876H94.8618L94.1598 19H90.4338L95.0958 6.31H99.1818L103.826 19H100.082L99.3798 16.876ZM98.4978 14.212L97.1298 10.072L95.7438 14.212H98.4978ZM114.859 6.256V9.082H111.421V19H107.893V9.082H104.491V6.256H114.859ZM119.965 6.256V19H116.419V6.256H119.965ZM125.179 6.256L128.059 15.436L130.921 6.256H134.683L130.327 19H125.773L121.417 6.256H125.179ZM139.671 9.082V11.188H143.793V13.87H139.671V16.174H144.333V19H136.125V6.256H144.333V9.082H139.671ZM62.748 36.066H57.168L56.106 39H54.342L59.04 26.544H60.894L65.574 39H63.81L62.748 36.066ZM62.28 34.788L59.958 28.38L57.636 34.788H62.28ZM73.388 26.184C74.864 26.184 76.1 26.55 77.096 27.282C78.104 28.014 78.782 29.01 79.13 30.27H77.402C77.102 29.502 76.598 28.884 75.89 28.416C75.194 27.948 74.366 27.714 73.406 27.714C72.542 27.714 71.768 27.918 71.084 28.326C70.4 28.722 69.86 29.292 69.464 30.036C69.08 30.78 68.888 31.656 68.888 32.664C68.888 33.696 69.086 34.59 69.482 35.346C69.878 36.09 70.424 36.666 71.12 37.074C71.828 37.47 72.638 37.668 73.55 37.668C74.33 37.668 75.044 37.5 75.692 37.164C76.34 36.828 76.868 36.342 77.276 35.706C77.696 35.058 77.948 34.302 78.032 33.438H73.046V32.214H79.418V33.726C79.31 34.734 78.998 35.646 78.482 36.462C77.966 37.278 77.27 37.926 76.394 38.406C75.518 38.886 74.522 39.126 73.406 39.126C72.182 39.126 71.102 38.856 70.166 38.316C69.23 37.764 68.498 37.002 67.97 36.03C67.454 35.046 67.196 33.924 67.196 32.664C67.196 31.404 67.454 30.288 67.97 29.316C68.498 28.332 69.23 27.564 70.166 27.012C71.102 26.46 72.176 26.184 73.388 26.184ZM83.6717 27.642V31.98H88.4957V33.24H83.6717V37.668H89.0357V39H82.0337V26.31H89.0357V27.642H83.6717ZM101.399 39H99.7612L93.1732 28.974V39H91.5352V26.31H93.1732L99.7612 36.354V26.31H101.399V39ZM110.045 26.184C111.593 26.184 112.871 26.568 113.879 27.336C114.887 28.092 115.583 29.13 115.967 30.45H114.239C113.915 29.61 113.393 28.944 112.673 28.452C111.953 27.948 111.071 27.696 110.027 27.696C109.199 27.696 108.455 27.9 107.795 28.308C107.147 28.704 106.631 29.28 106.247 30.036C105.875 30.78 105.689 31.656 105.689 32.664C105.689 33.66 105.875 34.53 106.247 35.274C106.631 36.018 107.147 36.594 107.795 37.002C108.455 37.398 109.199 37.596 110.027 37.596C111.071 37.596 111.953 37.35 112.673 36.858C113.393 36.354 113.915 35.682 114.239 34.842H115.967C115.583 36.162 114.887 37.206 113.879 37.974C112.871 38.73 111.593 39.108 110.045 39.108C108.857 39.108 107.807 38.838 106.895 38.298C105.983 37.746 105.269 36.984 104.753 36.012C104.249 35.028 103.997 33.912 103.997 32.664C103.997 31.404 104.249 30.282 104.753 29.298C105.269 28.314 105.983 27.552 106.895 27.012C107.807 26.46 108.857 26.184 110.045 26.184ZM127.572 26.31L123.414 34.194V39H121.758V34.194L117.582 26.31H119.49L122.604 32.448L125.7 26.31H127.572Z" fill="black" fill-opacity="0.85"/>
<path d="M16.1064 9.35054C14.6729 9.89206 13.6457 11.2671 13.6457 12.8876C13.6457 13.5117 13.8119 14.0924 14.0803 14.6125C12.9432 15.0496 12.1296 16.146 12.1296 17.4359C12.1296 18.7262 12.9432 19.8222 14.0803 20.2597C13.8119 20.7798 13.6457 21.3605 13.6457 21.9842C13.6457 23.6051 14.6729 24.9801 16.1064 25.5213C15.9928 25.8389 15.9199 26.1764 15.9199 26.5325C15.9199 28.2048 17.2798 29.5647 18.9521 29.5647C19.3296 29.5647 19.6876 29.4866 20.0211 29.3608C20.5122 30.3746 21.5423 31.0808 22.7423 31.0808C24.4146 31.0808 25.7745 29.7209 25.7745 28.0486V6.82322C25.7745 5.15129 24.4146 3.79102 22.7423 3.79102C21.5423 3.79102 20.5122 4.49762 20.0211 5.51106C19.6876 5.38522 19.3296 5.30712 18.9521 5.30712C17.2798 5.30712 15.9199 6.66739 15.9199 8.33932C15.9199 8.69576 15.9928 9.03296 16.1064 9.35054ZM18.9521 6.82322C19.7882 6.82322 20.4682 7.50317 20.4682 8.33932H21.9843C21.9843 7.61088 21.7152 6.9498 21.2855 6.42679C21.4613 5.78423 22.0443 5.30712 22.7423 5.30712C23.5785 5.30712 24.2584 5.98707 24.2584 6.82322V28.0486C24.2584 28.8848 23.5785 29.5647 22.7423 29.5647C22.0443 29.5647 21.4613 29.088 21.2855 28.445C21.7152 27.922 21.9843 27.2613 21.9843 26.5325H20.4682C20.4682 27.3687 19.7882 28.0486 18.9521 28.0486C18.1159 28.0486 17.436 27.3687 17.436 26.5325C17.436 25.6964 18.1159 25.0164 18.9521 25.0164V23.5003C18.2137 23.5003 17.5452 23.7764 17.0192 24.2162C15.9639 24.0196 15.1618 23.0958 15.1618 21.9842C15.1618 20.7306 16.1823 19.7101 17.436 19.7101C18.69 19.7101 19.7101 20.7306 19.7101 21.9842H21.2262C21.2262 19.8944 19.5262 18.194 17.436 18.194C16.5795 18.194 15.797 18.4905 15.1618 18.972V18.952C14.3257 18.952 13.6457 18.2721 13.6457 17.4359C13.6457 16.5998 14.3257 15.9198 15.1618 15.9198V15.9002C15.797 16.3818 16.5795 16.6779 17.436 16.6779C19.5262 16.6779 21.2262 14.9778 21.2262 12.8876H19.7101C19.7101 14.1417 18.69 15.1618 17.436 15.1618C16.1823 15.1618 15.1618 14.1417 15.1618 12.8876C15.1618 11.7765 15.9639 10.8526 17.0192 10.656C17.5452 11.0958 18.2137 11.3715 18.9521 11.3715V9.85542C18.1159 9.85542 17.436 9.17547 17.436 8.33932C17.436 7.50317 18.1159 6.82322 18.9521 6.82322Z" fill="black"/>
<path d="M34.1132 5.30712C33.7357 5.30712 33.3781 5.38522 33.0446 5.51106C32.5531 4.49762 31.523 3.79102 30.323 3.79102C28.6507 3.79102 27.2908 5.15129 27.2908 6.82322V28.0486C27.2908 29.7209 28.6507 31.0808 30.323 31.0808C31.523 31.0808 32.5531 30.3746 33.0446 29.3608C33.3781 29.4866 33.7357 29.5647 34.1132 29.5647C35.7855 29.5647 37.1454 28.2048 37.1454 26.5325C37.1454 26.1764 37.0729 25.8389 36.9589 25.5213C38.3924 24.9801 39.4196 23.6051 39.4196 21.9842C39.4196 21.3605 39.2537 20.7798 38.9854 20.2597C40.1225 19.8222 40.9357 18.7262 40.9357 17.4359C40.9357 16.146 40.1225 15.0496 38.9854 14.6125C39.2537 14.0924 39.4196 13.5117 39.4196 12.8876C39.4196 11.2671 38.3924 9.89206 36.9589 9.35054C37.0729 9.03296 37.1454 8.69576 37.1454 8.33932C37.1454 6.66739 35.7855 5.30712 34.1132 5.30712ZM37.9035 12.8876C37.9035 14.1417 36.8834 15.1618 35.6293 15.1618C34.3757 15.1618 33.3552 14.1417 33.3552 12.8876H31.8391C31.8391 14.9778 33.5395 16.6779 35.6293 16.6779C36.4858 16.6779 37.2683 16.3818 37.9035 15.9002V15.9198C38.7396 15.9198 39.4196 16.5998 39.4196 17.4359C39.4196 18.2721 38.7396 18.952 37.9035 18.952V18.972C37.2683 18.4905 36.4858 18.194 35.6293 18.194C33.5395 18.194 31.8391 19.8944 31.8391 21.9842H33.3552C33.3552 20.7306 34.3757 19.7101 35.6293 19.7101C36.8834 19.7101 37.9035 20.7306 37.9035 21.9842C37.9035 23.0958 37.1014 24.0196 36.0465 24.2162C35.5201 23.7764 34.8517 23.5003 34.1132 23.5003V25.0164C34.9494 25.0164 35.6293 25.6964 35.6293 26.5325C35.6293 27.3687 34.9494 28.0486 34.1132 28.0486C33.2771 28.0486 32.5971 27.3687 32.5971 26.5325H31.081C31.081 27.2613 31.3501 27.922 31.7798 28.445C31.604 29.088 31.0211 29.5647 30.323 29.5647C29.4868 29.5647 28.8069 28.8848 28.8069 28.0486V6.82322C28.8069 5.98707 29.4868 5.30712 30.323 5.30712C31.0211 5.30712 31.604 5.78423 31.7798 6.42679C31.3501 6.9498 31.081 7.61088 31.081 8.33932H32.5971C32.5971 7.50317 33.2771 6.82322 34.1132 6.82322C34.9494 6.82322 35.6293 7.50317 35.6293 8.33932C35.6293 9.17547 34.9494 9.85542 34.1132 9.85542V11.3715C34.8517 11.3715 35.5201 11.0958 36.0465 10.656C37.1014 10.8526 37.9035 11.7765 37.9035 12.8876Z" fill="black"/>
<path d="M38.4696 4.72833C34.9273 1.39891 30.2879 -0.27043 25.4191 0.0360471L25.5131 1.54882C29.9619 1.27232 34.1963 2.7936 37.4317 5.83284C40.6686 8.87466 42.4515 12.9962 42.4515 17.436C42.4515 22.7864 39.7847 27.7478 35.3174 30.7082C33.7765 31.7298 32.6106 33.187 31.8921 34.8712H21.1414C20.4129 33.1748 19.2425 31.7072 17.6991 30.6764C13.0952 27.5994 10.4498 22.4607 10.6219 16.9282L9.10659 16.8812C8.91781 22.9397 11.8157 28.5681 16.857 31.9363C17.9704 32.6807 18.8595 33.6941 19.4791 34.8712H17.4359V36.3873H20.0839C20.2308 36.8785 20.3485 37.3819 20.4081 37.9034H18.952V39.4195H20.4681V41.6936C20.4681 42.113 20.8079 42.4517 21.2261 42.4517H21.9842C21.9842 44.9601 24.024 47 26.5325 47C29.0409 47 31.0808 44.9601 31.0808 42.4517H31.8388C32.2575 42.4517 32.5969 42.113 32.5969 41.6936V39.4195H34.113V37.9034H32.6502C32.7039 37.3826 32.8108 36.8777 32.9548 36.3873H35.6291V34.8712H33.553C34.1637 33.7071 35.0476 32.7062 36.1554 31.9726C41.0469 28.7287 43.9677 23.295 43.9677 17.436C43.9677 12.6438 41.9633 8.01149 38.4696 4.72833ZM26.5325 45.4839C24.8602 45.4839 23.5003 44.124 23.5003 42.4517H29.5647C29.5647 44.124 28.2048 45.4839 26.5325 45.4839ZM31.0808 40.9356H21.9842V39.4195H31.0808V40.9356ZM31.1348 37.9034H21.9235C21.8728 37.3874 21.791 36.8803 21.6666 36.3873H31.3706C31.2499 36.8796 31.18 37.3889 31.1348 37.9034Z" fill="black"/>
<path d="M8.33935 5.30708C10.0116 5.30708 11.3715 6.66736 11.3715 8.33928C11.3715 8.75866 11.7113 9.09734 12.1296 9.09734C12.5482 9.09734 12.8876 8.75866 12.8876 8.33928C12.8876 6.66736 14.2475 5.30708 15.9198 5.30708C16.3385 5.30708 16.6779 4.9684 16.6779 4.54903C16.6779 4.13003 16.3385 3.79098 15.9198 3.79098C14.2475 3.79098 12.8876 2.43108 12.8876 0.758783C12.8876 0.339782 12.5482 0.000732422 12.1296 0.000732422C11.7113 0.000732422 11.3715 0.339782 11.3715 0.758783C11.3715 2.43108 10.0116 3.79098 8.33935 3.79098C7.92109 3.79098 7.5813 4.13003 7.5813 4.54903C7.5813 4.9684 7.92109 5.30708 8.33935 5.30708ZM12.1296 3.27019C12.4664 3.77655 12.9021 4.21257 13.4084 4.54903C12.9021 4.88586 12.4664 5.32152 12.1296 5.82787C11.7931 5.32152 11.3571 4.88586 10.8508 4.54903C11.3571 4.21257 11.7931 3.77655 12.1296 3.27019Z" fill="black"/>
<path d="M11.3715 12.8877C11.7901 12.8877 12.1296 12.549 12.1296 12.1296C12.1296 11.7106 11.7901 11.3716 11.3715 11.3716C9.69921 11.3716 8.33931 10.0117 8.33931 8.33935C8.33931 7.92035 7.99989 7.5813 7.58126 7.5813C7.163 7.5813 6.82321 7.92035 6.82321 8.33935C6.82321 10.0117 5.46331 11.3716 3.79101 11.3716C3.37275 11.3716 3.03296 11.7106 3.03296 12.1296C3.03296 12.549 3.37275 12.8877 3.79101 12.8877C5.46331 12.8877 6.82321 14.2479 6.82321 15.9199C6.82321 16.3392 7.163 16.6779 7.58126 16.6779C7.99989 16.6779 8.33931 16.3392 8.33931 15.9199C8.33931 14.2479 9.69921 12.8877 11.3715 12.8877ZM7.58126 13.4084C7.2448 12.9021 6.80877 12.4664 6.30242 12.1296C6.80877 11.7931 7.24406 11.3571 7.58126 10.8508C7.91809 11.3571 8.35374 11.7924 8.8601 12.1296C8.35374 12.4664 7.91809 12.9021 7.58126 13.4084Z" fill="black"/>
</svg>
